<svg width="28" height="28" viewBox="0 0 28 28" fill="none" xmlns="http://www.w3.org/2000/svg">
<path d="M2.33325 9.77342C2.33325 9.36472 2.33325 9.16036 2.35031 8.98824C2.51479 7.32814 3.82806 6.01486 5.48816 5.85038C5.66029 5.83333 5.87567 5.83333 6.30643 5.83333C6.47241 5.83333 6.55541 5.83333 6.62587 5.82906C7.52563 5.77457 8.31353 5.20668 8.64975 4.37033C8.67609 4.30483 8.7007 4.231 8.74992 4.08333C8.79914 3.93566 8.82375 3.86183 8.85008 3.79633C9.18631 2.95997 9.97421 2.39209 10.874 2.3376C10.9444 2.33333 11.0223 2.33333 11.1779 2.33333H16.8219C16.9776 2.33333 17.0554 2.33333 17.1259 2.3376C18.0256 2.39209 18.8135 2.95997 19.1498 3.79633C19.1761 3.86183 19.2007 3.93566 19.2499 4.08333C19.2991 4.231 19.3238 4.30483 19.3501 4.37033C19.6863 5.20668 20.4742 5.77457 21.374 5.82906C21.4444 5.83333 21.5274 5.83333 21.6934 5.83333C22.1242 5.83333 22.3396 5.83333 22.5117 5.85038C24.1718 6.01486 25.485 7.32814 25.6495 8.98824C25.6666 9.16036 25.6666 9.36472 25.6666 9.77342V18.9C25.6666 20.8602 25.6666 21.8403 25.2851 22.589C24.9496 23.2475 24.4141 23.783 23.7556 24.1185C23.0069 24.5 22.0268 24.5 20.0666 24.5H7.93325C5.97307 24.5 4.99298 24.5 4.24429 24.1185C3.58572 23.783 3.05029 23.2475 2.71473 22.589C2.33325 21.8403 2.33325 20.8602 2.33325 18.9V9.77342Z" stroke="black" stroke-width="2" stroke-linecap="round" stroke-linejoin="round"/>
<path d="M13.9999 19.25C16.5772 19.25 18.6666 17.1607 18.6666 14.5833C18.6666 12.006 16.5772 9.91666 13.9999 9.91666C11.4226 9.91666 9.33325 12.006 9.33325 14.5833C9.33325 17.1607 11.4226 19.25 13.9999 19.25Z" stroke="black" stroke-width="2" stroke-linecap="round" stroke-linejoin="round"/>
</svg>
