<svg width="114" height="127" viewBox="0 0 114 127" fill="none" xmlns="http://www.w3.org/2000/svg">
<path d="M43.125 116.958L52.2083 122.005C53.9572 122.976 54.8317 123.462 55.7577 123.652C56.5773 123.821 57.4227 123.821 58.2423 123.652C59.1684 123.462 60.0428 122.976 61.7917 122.005L70.875 116.958M15.375 101.542L6.57499 96.6528C4.72799 95.6267 3.80438 95.1135 3.1319 94.3838C2.53697 93.7382 2.08674 92.973 1.81132 92.1394C1.5 91.1972 1.5 90.1407 1.5 88.0277V78.4167M1.5 47.5833V37.9722C1.5 35.8593 1.5 34.8028 1.81132 33.8605C2.08674 33.027 2.53697 32.2618 3.1319 31.6162C3.80439 30.8865 4.72794 30.3734 6.57499 29.3472L15.375 24.4583M43.125 9.04166L52.2083 3.99537C53.9572 3.02376 54.8317 2.53795 55.7577 2.3475C56.5773 2.17893 57.4227 2.17893 58.2423 2.3475C59.1684 2.53795 60.0428 3.02376 61.7917 3.99537L70.875 9.04166M98.625 24.4583L107.425 29.3472C109.272 30.3734 110.196 30.8864 110.868 31.6162C111.463 32.2618 111.913 33.0269 112.189 33.8605C112.5 34.8028 112.5 35.8593 112.5 37.9722V47.5833M112.5 78.4167V88.0277C112.5 90.1407 112.5 91.1972 112.189 92.1394C111.913 92.973 111.463 93.7382 110.868 94.3838C110.196 95.1135 109.272 95.6266 107.425 96.6528L98.625 101.542M43.125 55.2917L57 63M57 63L70.875 55.2917M57 63V78.4167M1.5 32.1667L15.375 39.875M98.625 39.875L112.5 32.1667M57 109.25V124.667" stroke="#101828" stroke-width="3" stroke-linecap="round" stroke-linejoin="round"/>
</svg>
