<svg width="28" height="28" viewBox="0 0 28 28" fill="none" xmlns="http://www.w3.org/2000/svg">
<path d="M10.4999 12.8333L12.8333 15.1667L18.0833 9.91667M13.9919 5.99178C11.6594 3.2648 7.76962 2.53125 4.84706 5.02835C1.9245 7.52545 1.51305 11.7005 3.80815 14.6538C5.54169 16.8845 10.4664 21.3628 12.7726 23.4207C13.1965 23.799 13.4085 23.9882 13.6567 24.0626C13.8722 24.1273 14.1117 24.1273 14.3271 24.0626C14.5754 23.9882 14.7873 23.799 15.2113 23.4207C17.5174 21.3628 22.4422 16.8845 24.1757 14.6538C26.4708 11.7005 26.1096 7.49918 23.1368 5.02835C20.164 2.55752 16.3245 3.2648 13.9919 5.99178Z" stroke="black" stroke-width="2" stroke-linecap="round" stroke-linejoin="round"/>
</svg>
