<svg width="40" height="39" viewBox="0 0 40 39" fill="none" xmlns="http://www.w3.org/2000/svg">
<path d="M14 37H10C7.87827 37 5.84344 36.1571 4.34315 34.6569C2.84285 33.1566 2 31.1217 2 29V16.416C1.99997 15.0404 2.35463 13.6881 3.02974 12.4896C3.70484 11.2911 4.67757 10.2869 5.854 9.574L15.854 3.514C17.1042 2.75639 18.5381 2.35583 20 2.35583C21.4619 2.35583 22.8958 2.75639 24.146 3.514L34.146 9.574C35.3221 10.2867 36.2947 11.2906 36.9698 12.4887C37.6449 13.6868 37.9997 15.0388 38 16.414V29C38 31.1217 37.1571 33.1566 35.6569 34.6569C34.1566 36.1571 32.1217 37 30 37H26M14 37V29C14 27.4087 14.6321 25.8826 15.7574 24.7574C16.8826 23.6321 18.4087 23 20 23C21.5913 23 23.1174 23.6321 24.2426 24.7574C25.3679 25.8826 26 27.4087 26 29V37M14 37H26" stroke="#291100" stroke-width="3" stroke-linecap="round" stroke-linejoin="round"/>
</svg>
