<svg width="48" height="48" viewBox="0 0 48 48" fill="none" xmlns="http://www.w3.org/2000/svg">
<rect x="1" y="1" width="46" height="46" rx="9" fill="url(#paint0_linear_466_14478)" stroke="#435DC7" stroke-width="2"/>
<g filter="url(#filter0_d_466_14478)">
<path d="M14 13C14 11.8954 14.8954 11 16 11H18C19.1046 11 20 11.8954 20 13V37H16C14.8954 37 14 36.1046 14 35V13Z" fill="#F5F7FF"/>
</g>
<g filter="url(#filter1_d_466_14478)">
<path d="M25 11H31C32.1046 11 33 11.8954 33 13V17H27C25.8954 17 25 16.1046 25 15V11Z" fill="#F5F7FF"/>
</g>
<g filter="url(#filter2_d_466_14478)">
<path d="M25 21H31C32.1046 21 33 21.8954 33 23V27H27C25.8954 27 25 26.1046 25 25V21Z" fill="#F5F7FF"/>
</g>
<g filter="url(#filter3_d_466_14478)">
<path d="M25 33C25 31.8954 25.8954 31 27 31H33V35C33 36.1046 32.1046 37 31 37H25V33Z" fill="#F5F7FF"/>
</g>
<defs>
<filter id="filter0_d_466_14478" x="9" y="7" width="16" height="36" filterUnits="userSpaceOnUse" color-interpolation-filters="sRGB">
<feFlood flood-opacity="0" result="BackgroundImageFix"/>
<feColorMatrix in="SourceAlpha" type="matrix" values="0 0 0 0 0 0 0 0 0 0 0 0 0 0 0 0 0 0 127 0" result="hardAlpha"/>
<feOffset dy="1"/>
<feGaussianBlur stdDeviation="2.5"/>
<feComposite in2="hardAlpha" operator="out"/>
<feColorMatrix type="matrix" values="0 0 0 0 0 0 0 0 0 0 0 0 0 0 0 0 0 0 0.1 0"/>
<feBlend mode="normal" in2="BackgroundImageFix" result="effect1_dropShadow_466_14478"/>
<feBlend mode="normal" in="SourceGraphic" in2="effect1_dropShadow_466_14478" result="shape"/>
</filter>
<filter id="filter1_d_466_14478" x="20" y="7" width="18" height="16" filterUnits="userSpaceOnUse" color-interpolation-filters="sRGB">
<feFlood flood-opacity="0" result="BackgroundImageFix"/>
<feColorMatrix in="SourceAlpha" type="matrix" values="0 0 0 0 0 0 0 0 0 0 0 0 0 0 0 0 0 0 127 0" result="hardAlpha"/>
<feOffset dy="1"/>
<feGaussianBlur stdDeviation="2.5"/>
<feComposite in2="hardAlpha" operator="out"/>
<feColorMatrix type="matrix" values="0 0 0 0 0 0 0 0 0 0 0 0 0 0 0 0 0 0 0.1 0"/>
<feBlend mode="normal" in2="BackgroundImageFix" result="effect1_dropShadow_466_14478"/>
<feBlend mode="normal" in="SourceGraphic" in2="effect1_dropShadow_466_14478" result="shape"/>
</filter>
<filter id="filter2_d_466_14478" x="20" y="17" width="18" height="16" filterUnits="userSpaceOnUse" color-interpolation-filters="sRGB">
<feFlood flood-opacity="0" result="BackgroundImageFix"/>
<feColorMatrix in="SourceAlpha" type="matrix" values="0 0 0 0 0 0 0 0 0 0 0 0 0 0 0 0 0 0 127 0" result="hardAlpha"/>
<feOffset dy="1"/>
<feGaussianBlur stdDeviation="2.5"/>
<feComposite in2="hardAlpha" operator="out"/>
<feColorMatrix type="matrix" values="0 0 0 0 0 0 0 0 0 0 0 0 0 0 0 0 0 0 0.1 0"/>
<feBlend mode="normal" in2="BackgroundImageFix" result="effect1_dropShadow_466_14478"/>
<feBlend mode="normal" in="SourceGraphic" in2="effect1_dropShadow_466_14478" result="shape"/>
</filter>
<filter id="filter3_d_466_14478" x="20" y="27" width="18" height="16" filterUnits="userSpaceOnUse" color-interpolation-filters="sRGB">
<feFlood flood-opacity="0" result="BackgroundImageFix"/>
<feColorMatrix in="SourceAlpha" type="matrix" values="0 0 0 0 0 0 0 0 0 0 0 0 0 0 0 0 0 0 127 0" result="hardAlpha"/>
<feOffset dy="1"/>
<feGaussianBlur stdDeviation="2.5"/>
<feComposite in2="hardAlpha" operator="out"/>
<feColorMatrix type="matrix" values="0 0 0 0 0 0 0 0 0 0 0 0 0 0 0 0 0 0 0.1 0"/>
<feBlend mode="normal" in2="BackgroundImageFix" result="effect1_dropShadow_466_14478"/>
<feBlend mode="normal" in="SourceGraphic" in2="effect1_dropShadow_466_14478" result="shape"/>
</filter>
<linearGradient id="paint0_linear_466_14478" x1="24" y1="0" x2="24" y2="48" gradientUnits="userSpaceOnUse">
<stop stop-color="#5670D9"/>
<stop offset="1" stop-color="#415BC6"/>
</linearGradient>
</defs>
</svg>
