<svg width="28" height="28" viewBox="0 0 28 28" fill="none" xmlns="http://www.w3.org/2000/svg">
<path d="M23.3334 12.25V7.93334C23.3334 5.97316 23.3334 4.99307 22.9519 4.24438C22.6164 3.58581 22.0809 3.05038 21.4224 2.71482C20.6737 2.33334 19.6936 2.33334 17.7334 2.33334H10.2667C8.30656 2.33334 7.32647 2.33334 6.57778 2.71482C5.91921 3.05038 5.38378 3.58581 5.04823 4.24438C4.66675 4.99307 4.66675 5.97316 4.66675 7.93334V20.0667C4.66675 22.0269 4.66675 23.007 5.04823 23.7556C5.38378 24.4142 5.91921 24.9496 6.57778 25.2852C7.32647 25.6667 8.30656 25.6667 10.2667 25.6667H14.0001M21.0001 24.5V17.5M17.5001 21H24.5001" stroke="black" stroke-width="2" stroke-linecap="round" stroke-linejoin="round"/>
</svg>
